<svg width="1920" height="1080" viewBox="0 0 1920 1080" fill="none" xmlns="http://www.w3.org/2000/svg">
<rect width="1920" height="1080" fill="#1E1E1E"/>
<g clip-path="url(#clip0_0_1)">
<rect width="1920" height="1080" fill="#EDF2F4"/>
<path d="M2578 1079.5C2578 1443.18 2283.18 1738 1919.5 1738C1555.82 1738 1261 1443.18 1261 1079.5C1261 715.82 1555.82 421 1919.5 421C2283.18 421 2578 715.82 2578 1079.5Z" fill="#D90429"/>
<circle cx="0.5" cy="0.5" r="658.5" fill="#D90429"/>
<path d="M418.6 614.4C407.8 614.4 397.733 612.667 388.4 609.2C379.2 605.6 371.2 600.533 364.4 594C357.6 587.467 352.267 579.8 348.4 571C344.667 562.2 342.8 552.533 342.8 542C342.8 531.467 344.667 521.8 348.4 513C352.267 504.2 357.6 496.533 364.4 490C371.333 483.467 379.4 478.467 388.6 475C397.8 471.4 407.867 469.6 418.8 469.6C430.933 469.6 441.867 471.733 451.6 476C461.467 480.133 469.733 486.267 476.4 494.4L455.6 513.6C450.8 508.133 445.467 504.067 439.6 501.4C433.733 498.6 427.333 497.2 420.4 497.2C413.867 497.2 407.867 498.267 402.4 500.4C396.933 502.533 392.2 505.6 388.2 509.6C384.2 513.6 381.067 518.333 378.8 523.8C376.667 529.267 375.6 535.333 375.6 542C375.6 548.667 376.667 554.733 378.8 560.2C381.067 565.667 384.2 570.4 388.2 574.4C392.2 578.4 396.933 581.467 402.4 583.6C407.867 585.733 413.867 586.8 420.4 586.8C427.333 586.8 433.733 585.467 439.6 582.8C445.467 580 450.8 575.8 455.6 570.2L476.4 589.4C469.733 597.533 461.467 603.733 451.6 608C441.867 612.267 430.867 614.4 418.6 614.4ZM615.48 502.8C624.013 502.8 631.613 504.533 638.28 508C645.08 511.333 650.413 516.533 654.28 523.6C658.146 530.533 660.08 539.467 660.08 550.4V612H628.88V555.2C628.88 546.533 626.946 540.133 623.08 536C619.346 531.867 614.013 529.8 607.08 529.8C602.146 529.8 597.68 530.867 593.68 533C589.813 535 586.746 538.133 584.48 542.4C582.346 546.667 581.28 552.133 581.28 558.8V612H550.08V463.6H581.28V534.2L574.28 525.2C578.146 518 583.68 512.467 590.88 508.6C598.08 504.733 606.28 502.8 615.48 502.8ZM808.361 612V591L806.361 586.4V548.8C806.361 542.133 804.294 536.933 800.161 533.2C796.161 529.467 789.961 527.6 781.561 527.6C775.828 527.6 770.161 528.533 764.561 530.4C759.094 532.133 754.428 534.533 750.561 537.6L739.361 515.8C745.228 511.667 752.294 508.467 760.561 506.2C768.828 503.933 777.228 502.8 785.761 502.8C802.161 502.8 814.894 506.667 823.961 514.4C833.028 522.133 837.561 534.2 837.561 550.6V612H808.361ZM775.561 613.6C767.161 613.6 759.961 612.2 753.961 609.4C747.961 606.467 743.361 602.533 740.161 597.6C736.961 592.667 735.361 587.133 735.361 581C735.361 574.6 736.894 569 739.961 564.2C743.161 559.4 748.161 555.667 754.961 553C761.761 550.2 770.628 548.8 781.561 548.8H810.161V567H784.961C777.628 567 772.561 568.2 769.761 570.6C767.094 573 765.761 576 765.761 579.6C765.761 583.6 767.294 586.8 770.361 589.2C773.561 591.467 777.894 592.6 783.361 592.6C788.561 592.6 793.228 591.4 797.361 589C801.494 586.467 804.494 582.8 806.361 578L811.161 592.4C808.894 599.333 804.761 604.6 798.761 608.2C792.761 611.8 785.028 613.6 775.561 613.6ZM963.798 613.6C951.132 613.6 941.265 610.4 934.198 604C927.132 597.467 923.598 587.8 923.598 575V480.6H954.798V574.6C954.798 579.133 955.998 582.667 958.398 585.2C960.798 587.6 964.065 588.8 968.198 588.8C973.132 588.8 977.332 587.467 980.798 584.8L989.198 606.8C985.998 609.067 982.132 610.8 977.598 612C973.198 613.067 968.598 613.6 963.798 613.6ZM906.998 530.8V506.8H981.598V530.8H906.998ZM1044.51 612L1106.91 472H1138.91L1201.51 612H1167.51L1116.31 488.4H1129.11L1077.71 612H1044.51ZM1075.71 582L1084.31 557.4H1156.31L1165.11 582H1075.71ZM1331.44 613.6C1322.37 613.6 1314.44 611.6 1307.64 607.6C1300.84 603.6 1295.5 597.533 1291.64 589.4C1287.9 581.133 1286.04 570.733 1286.04 558.2C1286.04 545.533 1287.84 535.133 1291.44 527C1295.04 518.867 1300.24 512.8 1307.04 508.8C1313.84 504.8 1321.97 502.8 1331.44 502.8C1341.57 502.8 1350.64 505.133 1358.64 509.8C1366.77 514.333 1373.17 520.733 1377.84 529C1382.64 537.267 1385.04 547 1385.04 558.2C1385.04 569.533 1382.64 579.333 1377.84 587.6C1373.17 595.867 1366.77 602.267 1358.64 606.8C1350.64 611.333 1341.57 613.6 1331.44 613.6ZM1267.84 650.8V504.4H1297.64V526.4L1297.04 558.4L1299.04 590.2V650.8H1267.84ZM1326.04 588C1331.24 588 1335.84 586.8 1339.84 584.4C1343.97 582 1347.24 578.6 1349.64 574.2C1352.17 569.667 1353.44 564.333 1353.44 558.2C1353.44 551.933 1352.17 546.6 1349.64 542.2C1347.24 537.8 1343.97 534.4 1339.84 532C1335.84 529.6 1331.24 528.4 1326.04 528.4C1320.84 528.4 1316.17 529.6 1312.04 532C1307.9 534.4 1304.64 537.8 1302.24 542.2C1299.84 546.6 1298.64 551.933 1298.64 558.2C1298.64 564.333 1299.84 569.667 1302.24 574.2C1304.64 578.6 1307.9 582 1312.04 584.4C1316.17 586.8 1320.84 588 1326.04 588ZM1523.52 613.6C1514.46 613.6 1506.52 611.6 1499.72 607.6C1492.92 603.6 1487.59 597.533 1483.72 589.4C1479.99 581.133 1478.12 570.733 1478.12 558.2C1478.12 545.533 1479.92 535.133 1483.52 527C1487.12 518.867 1492.32 512.8 1499.12 508.8C1505.92 504.8 1514.06 502.8 1523.52 502.8C1533.66 502.8 1542.72 505.133 1550.72 509.8C1558.86 514.333 1565.26 520.733 1569.92 529C1574.72 537.267 1577.12 547 1577.12 558.2C1577.12 569.533 1574.72 579.333 1569.92 587.6C1565.26 595.867 1558.86 602.267 1550.72 606.8C1542.72 611.333 1533.66 613.6 1523.52 613.6ZM1459.92 650.8V504.4H1489.72V526.4L1489.12 558.4L1491.12 590.2V650.8H1459.92ZM1518.12 588C1523.32 588 1527.92 586.8 1531.92 584.4C1536.06 582 1539.32 578.6 1541.72 574.2C1544.26 569.667 1545.52 564.333 1545.52 558.2C1545.52 551.933 1544.26 546.6 1541.72 542.2C1539.32 537.8 1536.06 534.4 1531.92 532C1527.92 529.6 1523.32 528.4 1518.12 528.4C1512.92 528.4 1508.26 529.6 1504.12 532C1499.99 534.4 1496.72 537.8 1494.32 542.2C1491.92 546.6 1490.72 551.933 1490.72 558.2C1490.72 564.333 1491.92 569.667 1494.32 574.2C1496.72 578.6 1499.99 582 1504.12 584.4C1508.26 586.8 1512.92 588 1518.12 588Z" fill="#2B2D42"/>
</g>
<defs>
<clipPath id="clip0_0_1">
<rect width="1920" height="1080" fill="white"/>
</clipPath>
</defs>
</svg>
